<?xml version="1.0"?>
<svg xmlns="http://www.w3.org/2000/svg" xmlns:xlink="http://www.w3.org/1999/xlink" version="1.1" id="Capa_1" x="0px" y="0px" width="512px" height="512px" viewBox="0 0 456.966 456.966" style="enable-background:new 0 0 456.966 456.966;" xml:space="preserve"><g><g>
	<g>
		<path d="M358.318,446.684c-3.789,0-7.585-1.165-10.821-3.507l-119.021-86.487l-119.019,86.476c-6.449,4.695-15.18,4.695-21.632,0    c-6.449-4.69-9.148-12.982-6.684-20.573l45.459-139.93L7.584,196.196c-6.449-4.687-9.143-12.985-6.684-20.575    c2.459-7.575,9.518-12.709,17.498-12.709h147.121l45.459-139.924c2.459-7.581,9.518-12.709,17.498-12.709    c7.956,0,15.042,5.128,17.498,12.709l45.468,139.924H438.56c7.98,0,15.043,5.134,17.504,12.709    c2.463,7.584-0.233,15.889-6.683,20.575l-119.021,86.473l45.456,139.93c2.463,7.584-0.233,15.882-6.683,20.578    C365.914,445.519,362.101,446.684,358.318,446.684z" data-original="#000000" class="active-path" data-old_color="#000000" fill="#008489"/>
	</g>
</g></g> </svg>
